<svg xmlns="http://www.w3.org/2000/svg" viewBox="0 0 512 512" role="img" aria-labelledby="title desc">
  <title id="title">Vitalite favicon</title>
  <desc id="desc">Gold Vitalite house emblem favicon.</desc>
  <defs>
    <linearGradient id="gold" x1="0" y1="0" x2="0" y2="1">
      <stop offset="0" stop-color="#fff2a8"/>
      <stop offset="0.34" stop-color="#f4c942"/>
      <stop offset="0.68" stop-color="#c99519"/>
      <stop offset="1" stop-color="#ffe47a"/>
    </linearGradient>
    <linearGradient id="edge" x1="0" y1="0" x2="1" y2="1">
      <stop offset="0" stop-color="#ffffff" stop-opacity="0.78"/>
      <stop offset="1" stop-color="#8c6308" stop-opacity="0.8"/>
    </linearGradient>
    <filter id="shadow" x="-18%" y="-18%" width="136%" height="136%">
      <feDropShadow dx="0" dy="8" stdDeviation="5" flood-color="#2d1d00" flood-opacity="0.45"/>
    </filter>
    <style>
      .fill { fill: url(#gold); stroke: url(#edge); stroke-width: 5; }
      .ring { fill: none; stroke: url(#gold); stroke-width: 44; stroke-linecap: butt; stroke-linejoin: miter; }
    </style>
  </defs>
  <g filter="url(#shadow)" transform="translate(0 8)">
    <path class="ring" d="M 374 296 A 166 166 0 1 1 369 195"/>
    <path class="fill" d="M 76 274 L 76 223 L 163 184 L 145 127 L 197 127 L 214 170 L 256 150 L 300 170 L 316 127 L 368 127 L 349 184 L 439 226 L 439 277 L 256 196 Z"/>
    <path class="fill" d="M 167 260 L 218 244 L 256 363 L 295 244 L 346 260 L 284 420 L 228 420 Z"/>
    <rect class="fill" x="235" y="233" width="23" height="23" rx="3"/>
    <rect class="fill" x="269" y="233" width="23" height="23" rx="3"/>
    <rect class="fill" x="235" y="267" width="23" height="23" rx="3"/>
    <rect class="fill" x="269" y="267" width="23" height="23" rx="3"/>
  </g>
</svg>
